<?xml version="1.0" encoding="utf-8"?>
<!-- Generator: Adobe Illustrator 17.0.2, SVG Export Plug-In . SVG Version: 6.00 Build 0)  -->
<!DOCTYPE svg PUBLIC "-//W3C//DTD SVG 1.1//EN" "http://www.w3.org/Graphics/SVG/1.1/DTD/svg11.dtd">
<svg version="1.1" id="Layer_1" xmlns="http://www.w3.org/2000/svg" xmlns:xlink="http://www.w3.org/1999/xlink" x="0px" y="0px"
	 width="249.361px" height="267.092px" viewBox="0 0 249.361 267.092" enable-background="new 0 0 249.361 267.092"
	 xml:space="preserve">
<g>
	<path d="M249.361,132.792c0,23.389-4.339,43.572-13.015,60.548s-20.125,30.934-34.329,41.875
		c-14.212,10.941-30.246,18.992-48.1,24.144c-17.86,5.158-35.968,7.734-54.323,7.734H0V0h96.576c18.862,0,37.471,2.205,55.832,6.602
		c18.356,4.402,34.707,11.694,49.042,21.88c14.336,10.185,25.902,23.831,34.708,40.931
		C244.957,86.52,249.361,107.645,249.361,132.792z M182.211,132.792c0-15.091-2.452-27.599-7.356-37.537
		c-4.905-9.932-11.448-17.855-19.617-23.767c-8.176-5.906-17.484-10.121-27.917-12.637c-10.439-2.511-21.191-3.772-32.254-3.772H63
		v156.18h30.557c11.565,0,22.693-1.32,33.386-3.96c10.687-2.641,20.118-6.979,28.294-13.015
		c8.169-6.036,14.712-14.082,19.617-24.145C179.758,160.083,182.211,147.634,182.211,132.792z"/>
</g>
</svg>
